<svg width="20" height="20" viewBox="0 0 20 20" fill="none" xmlns="http://www.w3.org/2000/svg">
<path d="M19.1668 10.0002C19.1668 15.0628 15.0628 19.1668 10.0002 19.1668C4.93749 19.1668 0.833496 15.0628 0.833496 10.0002C0.833496 4.93749 4.93749 0.833496 10.0002 0.833496C15.0628 0.833496 19.1668 4.93749 19.1668 10.0002Z" fill="url(#paint0_radial)"/>
<path d="M0.833496 10.0001C0.833496 13.2718 2.54791 16.1427 5.12701 17.7648H14.8733C17.4524 16.1427 19.1668 13.2718 19.1668 10.0001C19.1668 6.72833 17.4524 3.85745 14.8733 2.23535H5.12701C2.54791 3.85745 0.833496 6.72833 0.833496 10.0001Z" fill="url(#paint1_linear)"/>
<path d="M0.833496 10C0.833496 12.3341 1.7063 14.4638 3.14265 16.0822H16.8577C18.294 14.4638 19.1668 12.3341 19.1668 10C19.1668 7.66598 18.294 5.53629 16.8577 3.91797H3.14265C1.7063 5.53629 0.833496 7.66598 0.833496 10H0.833496Z" fill="url(#paint2_linear)"/>
<path d="M0.833496 10.0004C0.833496 11.3646 1.13184 12.6588 1.6663 13.8222H18.334C18.8685 12.6588 19.1668 11.3646 19.1668 10.0004C19.1668 8.63626 18.8685 7.34203 18.334 6.17871H1.6663C1.13184 7.34203 0.833496 8.63626 0.833496 10.0004Z" fill="url(#paint3_linear)"/>
<path d="M0.833496 10C0.833496 10.7896 0.933645 11.5557 1.12135 12.2866H18.879C19.0667 11.5557 19.1668 10.7896 19.1668 10C19.1668 9.21043 19.0667 8.44435 18.879 7.71338H1.12135C0.933645 8.44435 0.833496 9.21043 0.833496 10H0.833496Z" fill="url(#paint4_linear)"/>
<path d="M9.27227 0.862305C4.55004 1.23339 0.833496 5.18268 0.833496 10.0003C0.833496 14.8179 4.55004 18.7672 9.27227 19.1383C13.9945 18.7672 17.711 14.8179 17.711 10.0003C17.711 5.18268 13.9945 1.23339 9.27227 0.862305Z" fill="url(#paint5_radial)"/>
<path d="M9.74699 1.70105C9.43227 1.65825 9.11281 1.65825 8.79795 1.70105C4.71117 2.25704 1.56152 5.7607 1.56152 10.0001C1.56152 14.2395 4.71117 17.7431 8.79795 18.2991C9.11281 18.3419 9.43227 18.3419 9.74699 18.2991C13.8339 17.7431 16.9836 14.2395 16.9836 10.0001C16.9836 5.7607 13.8339 2.25704 9.74699 1.70105Z" fill="url(#paint6_radial)"/>
<path d="M15.3656 10.0001C15.3656 6.3064 12.6212 3.31201 9.23586 3.31201C5.85039 3.31201 3.10596 6.3064 3.10596 10.0001C3.10596 13.6939 5.85039 16.6883 9.23586 16.6883C12.6212 16.6883 15.3656 13.6939 15.3656 10.0001Z" fill="url(#paint7_radial)"/>
<path d="M10.9178 3.56757C10.1547 3.33034 9.33949 3.33034 8.57635 3.56757C6.00928 4.36554 4.12939 6.9431 4.12939 10C4.12939 13.1166 6.08355 15.7352 8.72783 16.4772C9.39376 16.6641 10.1004 16.6641 10.7663 16.4772C13.4106 15.7352 15.3646 13.1168 15.3646 10C15.3646 6.9431 13.4849 4.36554 10.9178 3.56757Z" fill="url(#paint8_radial)"/>
<path d="M15.2952 11.0128L11.2375 6.95493C11.1638 6.82667 11.0107 6.72064 10.778 6.637C10.5391 6.55126 10.2845 6.49293 10.0148 6.46076L9.65873 6.14311C9.65159 6.0929 9.62222 6.0473 9.56767 6.00702C9.50473 5.96086 9.43689 5.9375 9.36429 5.9375C9.28499 5.9375 9.21701 5.96086 9.16092 6.00702C9.10469 6.05331 9.07658 6.10619 9.07658 6.16563V6.45335C8.54087 6.51293 8.09272 6.69141 7.73241 6.98906C7.37182 7.28671 7.19166 7.72283 7.19166 8.29728C7.19166 8.50192 7.21474 8.68837 7.26118 8.85677C7.30733 9.02504 7.38343 9.1719 7.48931 9.29723C7.59505 9.4227 7.69604 9.52998 7.79185 9.61908C7.79689 9.62383 7.80262 9.62845 7.80794 9.6332L9.07658 10.9048V12.5644C8.78355 12.5445 8.52534 12.4687 8.30211 12.3367C8.07901 12.2048 7.90361 12.081 7.77591 11.9654C7.6482 11.8499 7.54512 11.7921 7.46679 11.7921C7.34832 11.7921 7.24313 11.8548 7.1511 11.9803C7.05906 12.1057 7.01318 12.231 7.01318 12.3565C7.01318 12.562 7.13235 12.7645 7.36986 12.964L10.8567 16.4509C13.1649 15.7618 14.9297 13.6382 15.2952 11.0128Z" fill="url(#paint9_linear)"/>
<path d="M7.01318 12.3569C7.01318 12.2314 7.0592 12.1061 7.15124 11.9806C7.24327 11.8553 7.34846 11.7925 7.46693 11.7925C7.54526 11.7925 7.64834 11.8502 7.77605 11.9658C7.90375 12.0815 8.07915 12.2051 8.30225 12.337C8.52548 12.4692 8.78369 12.545 9.07672 12.5647V10.2382C8.87838 10.1658 8.72606 10.1079 8.62046 10.0649C8.51457 10.0223 8.374 9.95946 8.19874 9.87693C8.02348 9.79455 7.8878 9.70866 7.79199 9.61957C7.69618 9.53033 7.59519 9.42319 7.48959 9.29772C7.38357 9.17225 7.30761 9.02553 7.26132 8.85712C7.21502 8.68886 7.19194 8.50241 7.19194 8.29777C7.19194 7.72332 7.37196 7.28706 7.73255 6.98955C8.093 6.6919 8.54101 6.51328 9.07672 6.45384V6.16612C9.07672 6.10653 9.10483 6.05366 9.16106 6.00736C9.21715 5.96121 9.28513 5.93799 9.36444 5.93799C9.43717 5.93799 9.50487 5.96121 9.56781 6.00736C9.63061 6.05366 9.66208 6.10653 9.66208 6.16612V6.43398C10.0653 6.44726 10.4374 6.51496 10.7781 6.63735C11.1187 6.75974 11.2891 6.92996 11.2891 7.14816C11.2891 7.26719 11.2489 7.39126 11.1689 7.52022C11.0889 7.64919 10.9821 7.71367 10.8488 7.71367C10.796 7.71367 10.6511 7.65758 10.4143 7.54498C10.1772 7.43266 9.92658 7.36636 9.66208 7.34664V9.35703C9.92518 9.45606 10.1438 9.55019 10.3181 9.63929C10.4924 9.72839 10.6766 9.85217 10.8707 10.0105C11.0647 10.169 11.211 10.3686 11.3096 10.6094C11.4082 10.8503 11.4576 11.1326 11.4576 11.4559C11.4576 12.0468 11.2965 12.5165 10.9742 12.8649C10.6518 13.2134 10.2146 13.4274 9.66208 13.5072V13.8385C9.66208 13.897 9.63061 13.9489 9.56781 13.9945C9.50487 14.0399 9.43717 14.0626 9.36458 14.0626C9.28513 14.0626 9.21729 14.0398 9.16106 13.9946C9.10483 13.949 9.07686 13.8971 9.07686 13.8387V13.5368C8.50142 13.5303 8.01355 13.3986 7.61352 13.1418C7.2132 12.8853 7.01318 12.6236 7.01318 12.3569ZM8.17398 8.19888C8.17398 8.45625 8.25413 8.65263 8.41442 8.78789C8.57472 8.92314 8.81544 9.05029 9.13616 9.16904V7.36552C8.49471 7.44483 8.17398 7.72262 8.17398 8.19888ZM9.6025 12.5449C10.1844 12.4393 10.4756 12.1126 10.4756 11.5648C10.4756 11.2745 10.3993 11.0467 10.2473 10.8818C10.0951 10.7169 9.88028 10.5749 9.6025 10.456V12.5449Z" fill="url(#paint10_linear)"/>
<defs>
<radialGradient id="paint0_radial" cx="0" cy="0" r="1" gradientUnits="userSpaceOnUse" gradientTransform="translate(9.55505 9.68421) scale(9.54742)">
<stop stop-color="#FFA700"/>
<stop offset="0.3227" stop-color="#FCA300"/>
<stop offset="0.6649" stop-color="#F39600"/>
<stop offset="1" stop-color="#E58200"/>
</radialGradient>
<linearGradient id="paint1_linear" x1="10.0002" y1="8.55182" x2="10.0002" y2="24.9322" gradientUnits="userSpaceOnUse">
<stop stop-color="#E58200" stop-opacity="0"/>
<stop offset="0.0396" stop-color="#E27F04" stop-opacity="0.039216"/>
<stop offset="0.4671" stop-color="#C15D2F" stop-opacity="0.466667"/>
<stop offset="0.8016" stop-color="#AD4949" stop-opacity="0.8"/>
<stop offset="1" stop-color="#A64153"/>
</linearGradient>
<linearGradient id="paint2_linear" x1="10.0002" y1="12.2183" x2="10.0002" y2="-4.33483" gradientUnits="userSpaceOnUse">
<stop stop-color="#E58200" stop-opacity="0"/>
<stop offset="0.0396" stop-color="#E27F04" stop-opacity="0.039216"/>
<stop offset="0.4671" stop-color="#C15D2F" stop-opacity="0.466667"/>
<stop offset="0.8016" stop-color="#AD4949" stop-opacity="0.8"/>
<stop offset="1" stop-color="#A64153"/>
</linearGradient>
<linearGradient id="paint3_linear" x1="10.0002" y1="10.2776" x2="10.0002" y2="15.5715" gradientUnits="userSpaceOnUse">
<stop stop-color="#E58200" stop-opacity="0"/>
<stop offset="0.0396" stop-color="#E27F04" stop-opacity="0.039216"/>
<stop offset="0.4671" stop-color="#C15D2F" stop-opacity="0.466667"/>
<stop offset="0.8016" stop-color="#AD4949" stop-opacity="0.8"/>
<stop offset="1" stop-color="#A64153"/>
</linearGradient>
<linearGradient id="paint4_linear" x1="10.0002" y1="12.0026" x2="10.0002" y2="2.98779" gradientUnits="userSpaceOnUse">
<stop stop-color="#E58200" stop-opacity="0"/>
<stop offset="0.0396" stop-color="#E27F04" stop-opacity="0.039216"/>
<stop offset="0.4671" stop-color="#C15D2F" stop-opacity="0.466667"/>
<stop offset="0.8016" stop-color="#AD4949" stop-opacity="0.8"/>
<stop offset="1" stop-color="#A64153"/>
</linearGradient>
<radialGradient id="paint5_radial" cx="0" cy="0" r="1" gradientUnits="userSpaceOnUse" gradientTransform="translate(6.58951 7.52759) scale(12.8328)">
<stop stop-color="#FFC738"/>
<stop offset="0.2837" stop-color="#FFC534"/>
<stop offset="0.5391" stop-color="#FFBF29"/>
<stop offset="0.7827" stop-color="#FFB417"/>
<stop offset="1" stop-color="#FFA700"/>
</radialGradient>
<radialGradient id="paint6_radial" cx="0" cy="0" r="1" gradientUnits="userSpaceOnUse" gradientTransform="translate(9.27253 10.0001) scale(8.02706)">
<stop stop-color="#FFFCF8"/>
<stop offset="0.9485" stop-color="#FFFCF8" stop-opacity="0.05098"/>
<stop offset="1" stop-color="#FFFCF8" stop-opacity="0"/>
</radialGradient>
<radialGradient id="paint7_radial" cx="0" cy="0" r="1" gradientUnits="userSpaceOnUse" gradientTransform="translate(9.86334 9.14257) scale(9.59363 10.4677)">
<stop stop-color="#FFA700"/>
<stop offset="0.3227" stop-color="#FCA300"/>
<stop offset="0.6649" stop-color="#F39600"/>
<stop offset="1" stop-color="#E58200"/>
</radialGradient>
<radialGradient id="paint8_radial" cx="0" cy="0" r="1" gradientUnits="userSpaceOnUse" gradientTransform="translate(7.41053 7.69968) scale(9.77652)">
<stop stop-color="#FFC738"/>
<stop offset="0.2837" stop-color="#FFC534"/>
<stop offset="0.5391" stop-color="#FFBF29"/>
<stop offset="0.7827" stop-color="#FFB417"/>
<stop offset="1" stop-color="#FFA700"/>
</radialGradient>
<linearGradient id="paint9_linear" x1="12.7375" y1="11.7973" x2="6.51851" y2="10.3593" gradientUnits="userSpaceOnUse">
<stop stop-color="#FFA700" stop-opacity="0"/>
<stop offset="0.0206" stop-color="#FEA600" stop-opacity="0.019608"/>
<stop offset="0.6348" stop-color="#EC8C00" stop-opacity="0.635294"/>
<stop offset="1" stop-color="#E58200"/>
</linearGradient>
<linearGradient id="paint10_linear" x1="8.77836" y1="10.0003" x2="11.0305" y2="10.0003" gradientUnits="userSpaceOnUse">
<stop stop-color="#FFA700"/>
<stop offset="0.3227" stop-color="#FCA300"/>
<stop offset="0.6649" stop-color="#F39600"/>
<stop offset="1" stop-color="#E58200"/>
</linearGradient>
</defs>
</svg>
