<svg width="20" height="20" viewBox="0 0 20 20" fill="none" xmlns="http://www.w3.org/2000/svg">
<path fill-rule="evenodd" clip-rule="evenodd" d="M10.2718 1.84122C10.4049 1.72177 10.5809 1.65916 10.7611 1.66719C14.5701 1.78122 17.7534 4.54634 18.3304 8.24203C18.334 8.26409 18.334 8.2866 18.3304 8.30866C18.3428 8.48353 18.2837 8.65604 18.1662 8.78804C18.0486 8.92005 17.8823 9.00066 17.704 9.01205L11.3044 9.43409C11.0928 9.45285 10.8829 9.38321 10.7263 9.24227C10.5698 9.10133 10.481 8.90216 10.4819 8.69368L10.0517 2.4076V2.30394C10.0595 2.12715 10.1387 1.96067 10.2718 1.84122ZM9.83288 11.0778L15.3797 10.7224L15.4174 10.7372C15.6556 10.7411 15.8825 10.8377 16.048 11.0057C16.2136 11.1737 16.3044 11.3994 16.3004 11.6331C16.0818 14.8182 13.7466 17.4794 10.5688 18.165C7.39098 18.8506 4.13332 17.396 2.57299 14.5947C2.11419 13.7879 1.82426 12.8993 1.72022 11.9811C1.67986 11.709 1.6622 11.4341 1.66739 11.1592C1.67791 7.77238 4.08923 4.84905 7.46323 4.13275C7.87167 4.0563 8.28119 4.26023 8.45939 4.62882C8.50375 4.6957 8.53925 4.76786 8.56504 4.84354C8.62829 5.81983 8.69389 6.78687 8.75922 7.74984C8.81081 8.51039 8.86223 9.2684 8.91219 10.0264C8.90961 10.205 8.93767 10.3827 8.9952 10.5521C9.13063 10.8854 9.46764 11.0969 9.83288 11.0778Z" fill="#757575"/>
</svg>
