<svg width="20" height="20" viewBox="0 0 20 20" fill="none" xmlns="http://www.w3.org/2000/svg">
<path fill-rule="evenodd" clip-rule="evenodd" d="M9.99984 18.3337C5.39984 18.3337 1.6665 14.6087 1.6665 10.0003C1.6665 5.40033 5.39984 1.66699 9.99984 1.66699C14.6082 1.66699 18.3332 5.40033 18.3332 10.0003C18.3332 14.6087 14.6082 18.3337 9.99984 18.3337ZM12.6581 13.092C12.7581 13.1503 12.8664 13.1836 12.9831 13.1836C13.1914 13.1836 13.3998 13.0753 13.5164 12.8753C13.6914 12.5836 13.5998 12.2003 13.2998 12.017L10.3331 10.2503V6.4003C10.3331 6.0503 10.0498 5.7753 9.70811 5.7753C9.36644 5.7753 9.08311 6.0503 9.08311 6.4003V10.6086C9.08311 10.8253 9.19977 11.0253 9.39144 11.142L12.6581 13.092Z" fill="#757575"/>
</svg>
