<svg width="20" height="20" viewBox="0 0 20 20" fill="none" xmlns="http://www.w3.org/2000/svg">
<path fill-rule="evenodd" clip-rule="evenodd" d="M8.92028 2.93231C8.36167 2.93231 7.88643 3.32049 7.75303 3.8437H12.2386C12.1052 3.32049 11.63 2.93231 11.0714 2.93231H8.92028ZM13.5058 3.84371H15.1566C16.9075 3.84371 18.3332 5.28674 18.3332 7.05888C18.3332 7.05888 18.2831 7.80909 18.2665 8.85381C18.2648 8.93651 18.2248 9.01752 18.1589 9.06647C17.7579 9.36267 17.391 9.60739 17.3577 9.62427C15.9737 10.5525 14.3654 11.2057 12.652 11.5306C12.5403 11.5525 12.4302 11.4943 12.3735 11.3947C11.8933 10.5627 10.9962 10.0209 9.99567 10.0209C9.00184 10.0209 8.09639 10.5568 7.60197 11.3897C7.54444 11.4876 7.43606 11.5441 7.32517 11.523C5.62598 11.1973 4.01768 10.5449 2.64199 9.63271L1.84159 9.07575C1.77489 9.03355 1.7332 8.95761 1.7332 8.87322C1.70819 8.44284 1.6665 7.05888 1.6665 7.05888C1.6665 5.28674 3.09222 3.84371 4.84309 3.84371H6.48558C6.64399 2.62009 7.66951 1.6665 8.92013 1.6665H11.0712C12.3218 1.6665 13.3473 2.62009 13.5058 3.84371ZM18.0498 10.6792L18.0164 10.6961C16.3322 11.8269 14.3062 12.5779 12.1802 12.8901C11.88 12.9323 11.5799 12.7382 11.4965 12.4345C11.3131 11.7425 10.7211 11.2868 10.0124 11.2868H10.0041H9.9874C9.27872 11.2868 8.68675 11.7425 8.50333 12.4345C8.41995 12.7382 8.1198 12.9323 7.81965 12.8901C5.69359 12.5779 3.66758 11.8269 1.9834 10.6961C1.97506 10.6876 1.89169 10.637 1.82499 10.6792C1.74995 10.7214 1.74995 10.8226 1.74995 10.8226L1.80831 15.1264C1.80831 16.8986 3.22569 18.3332 4.97657 18.3332H15.0149C16.7658 18.3332 18.1832 16.8986 18.1832 15.1264L18.2499 10.8226C18.2499 10.8226 18.2499 10.7214 18.1748 10.6792C18.1331 10.6539 18.0831 10.6623 18.0498 10.6792ZM10.6211 14.215C10.6211 14.5694 10.3459 14.8479 9.99575 14.8479C9.65391 14.8479 9.37044 14.5694 9.37044 14.215V13.1264C9.37044 12.7804 9.65391 12.4935 9.99575 12.4935C10.3459 12.4935 10.6211 12.7804 10.6211 13.1264V14.215Z" fill="#757575"/>
</svg>
